<svg xmlns="http://www.w3.org/2000/svg" version="1.1" width="2000" height="419" viewBox="0 0 2000 419">
    <g transform="matrix(1,0,0,1,-1.2121212121212466,1.1170205111270377)">
        <svg xmlns="http://www.w3.org/2000/svg" viewBox="0 0 396 83" data-background-color="#89939e" preserveAspectRatio="xMidYMid meet" height="419" width="2000">
            <g id="tight-bounds" transform="matrix(1,0,0,1,0.2400000000000091,-0.2212713661659791)">
                <svg viewBox="0 0 395.52 83.44254273233194" height="83.44254273233194" width="395.52">
                    <g>
                        <svg viewBox="0 0 525.3772765178849 110.83843003246305" height="83.44254273233194" width="395.52">
                            <g>
                                <rect width="6.1807459407442495" height="110.83843003246305" x="107.49656738147506" y="0" fill="#a9a9a9" opacity="1" stroke-width="0" stroke="transparent" fill-opacity="1" class="rect-qz-0" data-fill-palette-color="primary" rx="1%" id="qz-0" data-palette-color="#a9a9a9"/>
                            </g>
                            <g transform="matrix(1,0,0,1,129.85727651788488,0.275717487642936)">
                                <svg viewBox="0 0 395.52 110.28699505717718" height="110.28699505717718" width="395.52">
                                    <g id="textblocktransform">
                                        <svg viewBox="0 0 395.52 110.28699505717718" height="110.28699505717718" width="395.52" id="textblock">
                                            <g>
                                                <svg viewBox="0 0 395.52 68.53709481550676" height="68.53709481550676" width="395.52">
                                                    <g transform="matrix(1,0,0,1,0,0)">
                                                        <svg width="395.52" viewBox="0.75 -36.3 214.08 37.099999999999994" height="68.53709481550676" data-palette-color="#a9a9a9">
                                                            <path d="M15.2 0L11.5 0 11.5-31 0.75-31 0.75-34.1 25.95-34.1 25.95-31 15.2-31 15.2 0ZM41-24.2Q43.45-24.2 45.52-23.2 47.6-22.2 48.82-20.25 50.05-18.3 50.05-15.65L50.05-15.65 50.05 0 46.65 0 46.65-14.15Q46.65-21.1 40.45-21.1L40.45-21.1Q36.85-21.1 35.05-18.55 33.25-16 33.25-11.7L33.25-11.7 33.25 0 29.85 0 29.85-36.3 33.25-36.3 33.25-19.5Q34.45-21.75 36.42-22.98 38.4-24.2 41-24.2L41-24.2ZM66.65-24.2Q69.8-24.2 72.35-22.65 74.9-21.1 76.35-18.43 77.8-15.75 77.8-12.45L77.8-12.45Q77.8-11.5 77.75-11L77.75-11 58.5-11Q58.7-7.4 60.85-4.85 63-2.3 66.7-2.3L66.7-2.3Q69.7-2.3 71.67-3.43 73.65-4.55 74.85-6.55L74.85-6.55 77.55-4.75Q75.9-2.15 73.2-0.68 70.5 0.8 66.8 0.8L66.8 0.8Q63.4 0.8 60.75-0.8 58.1-2.4 56.6-5.25 55.1-8.1 55.1-11.7L55.1-11.7Q55.1-15.3 56.57-18.15 58.05-21 60.67-22.6 63.3-24.2 66.65-24.2L66.65-24.2ZM58.7-13.8L74.4-13.8Q73.9-17.45 71.95-19.28 70-21.1 66.65-21.1L66.65-21.1Q63.4-21.1 61.32-19.03 59.25-16.95 58.7-13.8L58.7-13.8ZM121.34-4.2L133.84-34.1 138.04-34.1 138.04 0 134.34 0 134.34-27.25 122.94 0 119.44 0 108.54-27.15 108.54 0 104.79 0 104.79-34.1 109.39-34.1 121.34-4.2ZM155.29-24.2Q158.44-24.2 160.99-22.65 163.54-21.1 164.99-18.43 166.44-15.75 166.44-12.45L166.44-12.45Q166.44-11.5 166.39-11L166.39-11 147.14-11Q147.34-7.4 149.49-4.85 151.64-2.3 155.34-2.3L155.34-2.3Q158.34-2.3 160.31-3.43 162.29-4.55 163.49-6.55L163.49-6.55 166.19-4.75Q164.54-2.15 161.84-0.68 159.14 0.8 155.44 0.8L155.44 0.8Q152.04 0.8 149.39-0.8 146.74-2.4 145.24-5.25 143.74-8.1 143.74-11.7L143.74-11.7Q143.74-15.3 145.21-18.15 146.69-21 149.31-22.6 151.94-24.2 155.29-24.2L155.29-24.2ZM147.34-13.8L163.04-13.8Q162.54-17.45 160.59-19.28 158.64-21.1 155.29-21.1L155.29-21.1Q152.04-21.1 149.96-19.03 147.89-16.95 147.34-13.8L147.34-13.8ZM179.69 0.8Q176.29 0.8 173.71-0.65 171.14-2.1 169.79-4.75L169.79-4.75 172.84-6.25Q174.69-2.3 180.09-2.3L180.09-2.3Q182.69-2.3 184.39-3.25 186.09-4.2 186.09-6.2L186.09-6.2Q186.09-8.25 184.71-9.25 183.34-10.25 179.89-10.55L179.89-10.55Q175.09-10.95 173.01-12.7 170.94-14.45 170.94-17.35L170.94-17.35Q170.94-20.6 173.29-22.4 175.64-24.2 179.74-24.2L179.74-24.2Q186.69-24.2 189.19-18.7L189.19-18.7 186.14-17.2Q185.29-19.2 183.66-20.15 182.04-21.1 179.49-21.1L179.49-21.1Q176.89-21.1 175.51-20.15 174.14-19.2 174.14-17.45L174.14-17.45Q174.14-15.8 175.61-14.78 177.09-13.75 180.69-13.45L180.69-13.45Q185.14-13.05 187.31-11.28 189.49-9.5 189.49-6.6L189.49-6.6Q189.49-4.25 188.14-2.58 186.79-0.9 184.54-0.05 182.29 0.8 179.69 0.8L179.69 0.8ZM205.78-24.2Q208.23-24.2 210.31-23.2 212.38-22.2 213.61-20.25 214.83-18.3 214.83-15.65L214.83-15.65 214.83 0 211.43 0 211.43-14.15Q211.43-21.1 205.23-21.1L205.23-21.1Q201.63-21.1 199.83-18.55 198.03-16 198.03-11.7L198.03-11.7 198.03 0 194.63 0 194.63-36.3 198.03-36.3 198.03-19.5Q199.23-21.75 201.21-22.98 203.18-24.2 205.78-24.2L205.78-24.2Z" opacity="1" transform="matrix(1,0,0,1,0,0)" fill="#a9a9a9" class="wordmark-text-0" data-fill-palette-color="primary" id="text-0"/>
                                                        </svg>
                                                    </g>
                                                </svg>
                                            </g>
                                            <g transform="matrix(1,0,0,1,79.10399999999998,84.71705801117234)">
                                                <svg viewBox="0 0 237.312 25.569937046004846" height="25.569937046004846" width="237.312">
                                                    <g transform="matrix(1,0,0,1,0,0)">
                                                        <svg width="237.312" viewBox="5.7 -35.3 330.37 35.599999999999994" height="25.569937046004846" data-palette-color="#a9a9a9">
                                                            <path d="M5.7 0L5.7-35 9.4-35 9.4-3.2 29-3.2 29 0 5.7 0ZM45.25-2.9Q47.7-2.9 49.77-3.78 51.85-4.65 53.3-6.35L53.3-6.35 55.3-4.05Q53.55-1.95 50.95-0.85 48.35 0.25 45.2 0.25L45.2 0.25Q41.15 0.25 38-1.48 34.85-3.2 33.1-6.25 31.35-9.3 31.35-13.15L31.35-13.15Q31.35-17 33.02-20.05 34.7-23.1 37.65-24.8 40.6-26.5 44.35-26.5L44.35-26.5Q47.85-26.5 50.67-24.9 53.5-23.3 55.17-20.45 56.85-17.6 56.95-13.95L56.95-13.95 35.35-9.75Q36.35-6.55 38.97-4.73 41.6-2.9 45.25-2.9L45.25-2.9ZM44.35-23.45Q41.6-23.45 39.42-22.18 37.25-20.9 36.02-18.63 34.8-16.35 34.8-13.4L34.8-13.4Q34.8-12.65 34.85-12.3L34.85-12.3 53.4-15.9Q52.8-19.2 50.35-21.33 47.9-23.45 44.35-23.45L44.35-23.45ZM75.9-4.15L77.15-1.6Q76.15-0.7 74.7-0.23 73.25 0.25 71.65 0.25L71.65 0.25Q67.95 0.25 65.95-1.75 63.95-3.75 63.95-7.4L63.95-7.4 63.95-32.05 67.5-32.05 67.5-26.3 75.45-26.3 75.45-23.3 67.5-23.3 67.5-7.6Q67.5-5.25 68.65-4.03 69.8-2.8 72-2.8L72-2.8Q74.4-2.8 75.9-4.15L75.9-4.15ZM82.34-21.8L82.09-35 85.24-35 84.99-21.8 82.34-21.8ZM100.74 0.25Q97.54 0.25 94.62-0.68 91.69-1.6 90.04-3L90.04-3 91.64-5.8Q93.29-4.5 95.79-3.68 98.29-2.85 100.99-2.85L100.99-2.85Q104.59-2.85 106.32-3.98 108.04-5.1 108.04-7.15L108.04-7.15Q108.04-8.6 107.09-9.43 106.14-10.25 104.69-10.68 103.24-11.1 100.84-11.5L100.84-11.5Q97.64-12.1 95.69-12.73 93.74-13.35 92.37-14.85 90.99-16.35 90.99-19L90.99-19Q90.99-22.3 93.74-24.4 96.49-26.5 101.39-26.5L101.39-26.5Q103.94-26.5 106.49-25.83 109.04-25.15 110.69-24.05L110.69-24.05 109.14-21.2Q105.89-23.45 101.39-23.45L101.39-23.45Q97.99-23.45 96.27-22.25 94.54-21.05 94.54-19.1L94.54-19.1Q94.54-17.6 95.52-16.7 96.49-15.8 97.94-15.38 99.39-14.95 101.94-14.5L101.94-14.5Q105.09-13.9 106.99-13.3 108.89-12.7 110.24-11.25 111.59-9.8 111.59-7.25L111.59-7.25Q111.59-3.8 108.72-1.78 105.84 0.25 100.74 0.25L100.74 0.25ZM147.19 0.3Q141.99 0.3 137.81-2 133.64-4.3 131.26-8.38 128.89-12.45 128.89-17.5L128.89-17.5Q128.89-22.55 131.26-26.63 133.64-30.7 137.84-33 142.04-35.3 147.24-35.3L147.24-35.3Q151.14-35.3 154.44-34 157.74-32.7 160.04-30.2L160.04-30.2 157.69-27.85Q153.59-32 147.34-32L147.34-32Q143.19-32 139.79-30.1 136.39-28.2 134.46-24.9 132.54-21.6 132.54-17.5L132.54-17.5Q132.54-13.4 134.46-10.1 136.39-6.8 139.79-4.9 143.19-3 147.34-3L147.34-3Q153.64-3 157.69-7.2L157.69-7.2 160.04-4.85Q157.74-2.35 154.41-1.03 151.09 0.3 147.19 0.3L147.19 0.3ZM176.78 0.25Q172.98 0.25 169.93-1.48 166.88-3.2 165.13-6.25 163.38-9.3 163.38-13.15L163.38-13.15Q163.38-17 165.13-20.05 166.88-23.1 169.93-24.8 172.98-26.5 176.78-26.5L176.78-26.5Q180.58-26.5 183.63-24.8 186.68-23.1 188.41-20.05 190.13-17 190.13-13.15L190.13-13.15Q190.13-9.3 188.41-6.25 186.68-3.2 183.63-1.48 180.58 0.25 176.78 0.25L176.78 0.25ZM176.78-2.9Q179.58-2.9 181.81-4.17 184.03-5.45 185.28-7.8 186.53-10.15 186.53-13.15L186.53-13.15Q186.53-16.15 185.28-18.5 184.03-20.85 181.81-22.13 179.58-23.4 176.78-23.4L176.78-23.4Q173.98-23.4 171.76-22.13 169.53-20.85 168.26-18.5 166.98-16.15 166.98-13.15L166.98-13.15Q166.98-10.15 168.26-7.8 169.53-5.45 171.76-4.17 173.98-2.9 176.78-2.9L176.78-2.9ZM210.78-26.5Q215.73-26.5 218.66-23.63 221.58-20.75 221.58-15.25L221.58-15.25 221.58 0 218.03 0 218.03-14.9Q218.03-19 215.98-21.15 213.93-23.3 210.13-23.3L210.13-23.3Q205.88-23.3 203.41-20.78 200.93-18.25 200.93-13.8L200.93-13.8 200.93 0 197.38 0 197.38-26.3 200.78-26.3 200.78-21.45Q202.23-23.85 204.81-25.18 207.38-26.5 210.78-26.5L210.78-26.5ZM244.63-26.5Q249.58-26.5 252.5-23.63 255.43-20.75 255.43-15.25L255.43-15.25 255.43 0 251.88 0 251.88-14.9Q251.88-19 249.83-21.15 247.78-23.3 243.98-23.3L243.98-23.3Q239.73-23.3 237.25-20.78 234.78-18.25 234.78-13.8L234.78-13.8 234.78 0 231.23 0 231.23-26.3 234.63-26.3 234.63-21.45Q236.08-23.85 238.65-25.18 241.23-26.5 244.63-26.5L244.63-26.5ZM276.43-2.9Q278.88-2.9 280.95-3.78 283.03-4.65 284.48-6.35L284.48-6.35 286.48-4.05Q284.73-1.95 282.13-0.85 279.53 0.25 276.38 0.25L276.38 0.25Q272.33 0.25 269.18-1.48 266.03-3.2 264.28-6.25 262.53-9.3 262.53-13.15L262.53-13.15Q262.53-17 264.2-20.05 265.88-23.1 268.83-24.8 271.78-26.5 275.53-26.5L275.53-26.5Q279.03-26.5 281.85-24.9 284.68-23.3 286.35-20.45 288.03-17.6 288.13-13.95L288.13-13.95 266.53-9.75Q267.53-6.55 270.15-4.73 272.78-2.9 276.43-2.9L276.43-2.9ZM275.53-23.45Q272.78-23.45 270.6-22.18 268.43-20.9 267.2-18.63 265.98-16.35 265.98-13.4L265.98-13.4Q265.98-12.65 266.03-12.3L266.03-12.3 284.58-15.9Q283.98-19.2 281.53-21.33 279.08-23.45 275.53-23.45L275.53-23.45ZM306.27 0.25Q302.37 0.25 299.3-1.45 296.22-3.15 294.47-6.23 292.72-9.3 292.72-13.15L292.72-13.15Q292.72-17 294.47-20.05 296.22-23.1 299.3-24.8 302.37-26.5 306.27-26.5L306.27-26.5Q309.67-26.5 312.35-25.18 315.02-23.85 316.57-21.3L316.57-21.3 313.92-19.5Q312.62-21.45 310.62-22.43 308.62-23.4 306.27-23.4L306.27-23.4Q303.42-23.4 301.15-22.13 298.87-20.85 297.6-18.5 296.32-16.15 296.32-13.15L296.32-13.15Q296.32-10.1 297.6-7.78 298.87-5.45 301.15-4.17 303.42-2.9 306.27-2.9L306.27-2.9Q308.62-2.9 310.62-3.85 312.62-4.8 313.92-6.75L313.92-6.75 316.57-4.95Q315.02-2.4 312.32-1.07 309.62 0.25 306.27 0.25L306.27 0.25ZM334.82-4.15L336.07-1.6Q335.07-0.7 333.62-0.23 332.17 0.25 330.57 0.25L330.57 0.25Q326.87 0.25 324.87-1.75 322.87-3.75 322.87-7.4L322.87-7.4 322.87-32.05 326.42-32.05 326.42-26.3 334.37-26.3 334.37-23.3 326.42-23.3 326.42-7.6Q326.42-5.25 327.57-4.03 328.72-2.8 330.92-2.8L330.92-2.8Q333.32-2.8 334.82-4.15L334.82-4.15Z" opacity="1" transform="matrix(1,0,0,1,0,0)" fill="#a9a9a9" class="slogan-text-1" data-fill-palette-color="secondary" id="text-1"/>
                                                        </svg>
                                                    </g>
                                                </svg>
                                            </g>
                                        </svg>
                                    </g>
                                </svg>
                            </g>
                            <g transform="matrix(1,0,0,1,0,7.44437216635945)">
                                <svg viewBox="0 0 91.31660418580948 95.94968569974415" height="95.94968569974415" width="91.31660418580948">
                                    <g>
                                        <svg xmlns="http://www.w3.org/2000/svg" version="1.1" x="0" y="0" viewBox="10.89719438692045 13 57.10280561307955 60" enable-background="new 0 0 80 80" xml:space="preserve" height="95.94968569974415" width="91.31660418580948" class="icon-icon-0" data-fill-palette-color="accent" id="icon-0">
                                            <g fill="#a9a9a9" data-fill-palette-color="accent">
                                                <g fill="#a9a9a9" data-fill-palette-color="accent">
                                                    <path fill="#a9a9a9" d="M56 39H28c-7.168 0-13-5.832-13-13s5.832-13 13-13c3.539 0 6.906 1.443 9.354 3.984C38.813 16.338 40.405 16 42 16c4.56 0 8.634 2.676 10.477 6.769C53.58 22.263 54.779 22 56 22c4.687 0 8.5 3.813 8.5 8.5S60.687 39 56 39zM28 15c-6.065 0-11 4.935-11 11s4.935 11 11 11h28c3.584 0 6.5-2.916 6.5-6.5S59.584 24 56 24c-1.24 0-2.451 0.356-3.501 1.03l-1.083 0.695-0.406-1.221C49.716 20.614 46.096 18 42 18c-1.554 0-3.041 0.368-4.417 1.094l-0.707 0.372-0.519-0.607C34.258 16.407 31.212 15 28 15z" data-fill-palette-color="accent"/>
                                                </g>
                                                <g fill="#a9a9a9" data-fill-palette-color="accent">
                                                    <path fill="#a9a9a9" d="M62.978 65.208l-1.956-0.416c0.009-0.042 0.884-4.431-1.6-8.059-1.7-2.483-4.589-4.081-8.586-4.747-7.371-1.228-11.321 1.403-15.504 4.19-4.276 2.849-8.699 5.794-16.578 3.792-4.196-1.066-6.914-3.712-7.651-7.449-1.113-5.637 2.378-12.922 8.302-17.322l1.192 1.605c-5.25 3.9-8.488 10.49-7.532 15.329 0.589 2.98 2.727 5.021 6.183 5.899 7.017 1.784 10.706-0.673 14.976-3.52 4.121-2.744 8.79-5.854 16.942-4.498 4.566 0.761 7.904 2.648 9.922 5.611C64.048 59.971 63.023 64.996 62.978 65.208z" data-fill-palette-color="accent"/>
                                                </g>
                                                <g fill="#a9a9a9" data-fill-palette-color="accent">
                                                    <path fill="#a9a9a9" d="M68 73h-5v-3h-1v3h-5v-9h11V73zM65 71h1v-5h-7v5h1v-3h5V71z" data-fill-palette-color="accent"/>
                                                </g>
                                            </g>
                                        </svg>
                                    </g>
                                </svg>
                            </g>
                        </svg>
                    </g>
                    <defs fill="#000000"/>
                </svg>
                <rect width="395.52" height="83.44254273233194" fill="none" stroke="none" visibility="hidden"/>
            </g>
        </svg>
    </g>
</svg>